<?xml version="1.0" encoding="UTF-8" standalone="no"?>
<!DOCTYPE svg PUBLIC "-//W3C//DTD SVG 1.1//EN"
 "http://www.w3.org/Graphics/SVG/1.1/DTD/svg11.dtd">
<!-- Generated by graphviz version 2.40.1 (20161225.0304)
 -->
<!-- Title: G Pages: 1 -->
<svg width="168pt" height="188pt"
 viewBox="0.00 0.00 168.49 188.00" xmlns="http://www.w3.org/2000/svg" xmlns:xlink="http://www.w3.org/1999/xlink">
<g id="graph0" class="graph" transform="scale(1 1) rotate(0) translate(4 184)">
<title>G</title>
<polygon fill="transparent" stroke="transparent" points="-4,4 -4,-184 164.4937,-184 164.4937,4 -4,4"/>
<!-- Adapter -->
<g id="node1" class="node">
<title>Adapter</title>
<ellipse fill="none" stroke="#000000" cx="77.1471" cy="-162" rx="48.1917" ry="18"/>
<text text-anchor="middle" x="77.1471" y="-158.3" font-family="Times,serif" font-size="14.00" fill="#000000">Adapter</text>
</g>
<!-- Lens -->
<g id="node2" class="node">
<title>Lens</title>
<ellipse fill="none" stroke="#000000" cx="33.1471" cy="-90" rx="33.2948" ry="18"/>
<text text-anchor="middle" x="33.1471" y="-86.3" font-family="Times,serif" font-size="14.00" fill="#000000">Lens</text>
</g>
<!-- Adapter&#45;&gt;Lens -->
<g id="edge1" class="edge">
<title>Adapter&#45;&gt;Lens</title>
<path fill="none" stroke="#000000" d="M66.2707,-144.2022C61.0251,-135.6186 54.6345,-125.1613 48.8711,-115.7303"/>
<polygon fill="#000000" stroke="#000000" points="51.7964,-113.805 43.5954,-107.0972 45.8234,-117.4551 51.7964,-113.805"/>
</g>
<!-- Prism -->
<g id="node3" class="node">
<title>Prism</title>
<ellipse fill="none" stroke="#000000" cx="122.1471" cy="-90" rx="38.1938" ry="18"/>
<text text-anchor="middle" x="122.1471" y="-86.3" font-family="Times,serif" font-size="14.00" fill="#000000">Prism</text>
</g>
<!-- Adapter&#45;&gt;Prism -->
<g id="edge2" class="edge">
<title>Adapter&#45;&gt;Prism</title>
<path fill="none" stroke="#000000" d="M88.2707,-144.2022C93.596,-135.6817 100.0752,-125.315 105.9355,-115.9385"/>
<polygon fill="#000000" stroke="#000000" points="108.9747,-117.6796 111.3067,-107.3446 103.0387,-113.9696 108.9747,-117.6796"/>
</g>
<!-- Traversal -->
<g id="node4" class="node">
<title>Traversal</title>
<ellipse fill="none" stroke="#000000" cx="77.1471" cy="-18" rx="54.6905" ry="18"/>
<text text-anchor="middle" x="77.1471" y="-14.3" font-family="Times,serif" font-size="14.00" fill="#000000">Traversal</text>
</g>
<!-- Lens&#45;&gt;Traversal -->
<g id="edge3" class="edge">
<title>Lens&#45;&gt;Traversal</title>
<path fill="none" stroke="#000000" d="M43.7982,-72.5708C48.9636,-64.1184 55.2784,-53.7851 61.018,-44.3931"/>
<polygon fill="#000000" stroke="#000000" points="64.0602,-46.1268 66.2883,-35.7689 58.0873,-42.4766 64.0602,-46.1268"/>
</g>
<!-- Prism&#45;&gt;Traversal -->
<g id="edge4" class="edge">
<title>Prism&#45;&gt;Traversal</title>
<path fill="none" stroke="#000000" d="M111.2538,-72.5708C105.971,-64.1184 99.5128,-53.7851 93.6427,-44.3931"/>
<polygon fill="#000000" stroke="#000000" points="96.5206,-42.3939 88.2526,-35.7689 90.5846,-46.1039 96.5206,-42.3939"/>
</g>
</g>
</svg>
